<svg width="498" height="116" viewBox="0 0 498 116" fill="none" xmlns="http://www.w3.org/2000/svg" role="img" aria-labelledby="logoTitle logoDesc">
  <title id="logoTitle">The AI Works logo</title>
  <desc id="logoDesc">A microchip silhouette enclosing the stylized A/W monogram, alongside the text The AI Works.</desc>
  <defs>
    <linearGradient id="iconGradient" x1="20" y1="100" x2="120" y2="20" gradientUnits="userSpaceOnUse">
      <stop offset="0" stop-color="#E85D04"/>
      <stop offset="0.5" stop-color="#F27A1A"/>
      <stop offset="1" stop-color="#FFBA08"/>
    </linearGradient>
  </defs>

  <!-- Chip pins (3 per side, slight overlap into the chip body) -->
  <g fill="url(#iconGradient)" stroke="#141414" stroke-width="1.4">
    <!-- Top -->
    <rect x="38" y="2" width="6" height="10" rx="1"/>
    <rect x="70" y="2" width="6" height="10" rx="1"/>
    <rect x="102" y="2" width="6" height="10" rx="1"/>
    <!-- Bottom -->
    <rect x="38" y="106" width="6" height="10" rx="1"/>
    <rect x="70" y="106" width="6" height="10" rx="1"/>
    <rect x="102" y="106" width="6" height="10" rx="1"/>
    <!-- Left -->
    <rect x="2" y="32" width="10" height="6" rx="1"/>
    <rect x="2" y="56" width="10" height="6" rx="1"/>
    <rect x="2" y="80" width="10" height="6" rx="1"/>
    <!-- Right -->
    <rect x="136" y="32" width="10" height="6" rx="1"/>
    <rect x="136" y="56" width="10" height="6" rx="1"/>
    <rect x="136" y="80" width="10" height="6" rx="1"/>
  </g>

  <!-- Chip body -->
  <rect x="8" y="10" width="130" height="98" rx="14" fill="none" stroke="url(#iconGradient)" stroke-width="4"/>

  <!-- Pin-1 orientation notch -->
  <circle cx="18" cy="20" r="2.2" fill="url(#iconGradient)"/>

  <!-- A/W monogram (unchanged), positioned inside the chip body -->
  <g transform="translate(20 18)">
    <path d="M12 69L45 12L74 69L96 32" stroke="#141414" stroke-width="18" stroke-linecap="round" stroke-linejoin="round"/>
    <path d="M12 69L45 12L74 69L96 32" stroke="url(#iconGradient)" stroke-width="10" stroke-linecap="round" stroke-linejoin="round"/>
    <path d="M28 42L61 60" stroke="#141414" stroke-width="18" stroke-linecap="round"/>
    <path d="M28 42L61 60" stroke="url(#iconGradient)" stroke-width="10" stroke-linecap="round"/>
    <circle cx="12" cy="69" r="12" fill="url(#iconGradient)" stroke="#141414" stroke-width="5"/>
    <circle cx="45" cy="12" r="10" fill="#FFBA08" stroke="#141414" stroke-width="5"/>
    <circle cx="96" cy="32" r="10" fill="#FFBA08" stroke="#141414" stroke-width="5"/>
  </g>

  <text x="158" y="70" fill="#F0F0F0" font-family="Inter, Segoe UI, Arial, sans-serif" font-size="42" font-weight="700" letter-spacing="-1.2">The AI Works</text>
</svg>
